<svg id="front-lineing" xmlns="http://www.w3.org/2000/svg" viewBox="0 0 1050 2104.56"><title>sdfsdsdfsdsdfdoooo</title><g id="jVCaHt.tif"><path d="M-154,499c3.47-18.16,12.28-34.39,19-51.36Q-109.6,383-83.12,318.77c20.8-50.43,46.73-98,80.1-141.36,2.63-3.42,4.84-7.18,7.19-10.81C14.61,150.47,30.43,141,46.53,131.66c31.79-18.42,65.38-33,98.91-47.86,12.93-5.72,25-13.35,38.09-18.75,9.86-4.06,20-7.47,30-11.09C224.37,50,232.7,42.14,240.24,33.58a63.81,63.81,0,0,0,12.62-21.41c1.78-5.18,5.28-7.4,10.51-7.49,32.83-.57,65.5-3.36,98.14-6.73,19.17-2,37.58,2,55.24,9,16.57,6.55,22.19,17.85,19.06,37.1-.87,5.37.59,7.59,5.42,9.72,40.43,17.82,82,32.76,123.07,48.9,22.62,8.89,45.81,16.57,67.21,28.21,39.16,21.3,63.26,55.07,74.36,97.31C716.76,269.6,729.24,310.47,743,351,760.75,403,780.2,454.45,800.78,505.45c15.05,37.31,25.56,76,33.89,115.39,6,28.5,14.1,56.56,21.23,84.82q18.7,74.13,37.38,148.27c.77,3.06,1.81,6.05,2.72,9.07v14c-14.79,19.22-33.66,32.11-57.69,36.7-19.93,3.8-39.1.81-57.62-7.21a12.11,12.11,0,0,1-7.11-7.72Q742.64,810.6,711.49,722.5q-24-68.09-48.12-136.17c-5.58-15.74-13.77-30.32-20.76-45.43-13.78-29.79-27.44-59.64-44.28-87.88-1.7-2.86-3.63-5.59-5.55-8.31-1.7-2.42-3.21-2.24-4,.67-2.17,8.21-4.54,16.37-6.31,24.67-7.48,35.19-14.42,70.48-18.87,106.2-2.1,16.85-3.36,33.79-4.41,50.74-1.44,23.3-1.26,46.63-.93,69.95.42,29.7,3.69,58.93,11.05,87.92C582,834.72,594,884.76,603.67,935.32c7.76,40.73,16.21,81.33,22,122.41,3.51,24.89,6.26,49.87,7.7,75,1,17.46,2.28,34.9,1.62,52.41-1.21,32.45-3.11,64.89-3.55,97.34-.66,48.65,0,97.31-.51,146-.31,29.79-1.69,59.58-3.37,89.34-.86,15.28-.28,30.64-2.1,45.9-4.28,35.73-10.18,71.18-17.14,106.48-5.63,28.6-9.27,57.52-13.07,86.41q-9,68.08-17.69,136.19c-4.56,35.83-8.8,71.71-13.29,107.55-2.94,23.46-6.3,46.86-9,70.34-.84,7.26-4.5,11.53-10.34,15.23-13.68,8.65-28.79,12.81-44.54,15.27-1.14.18-2.24.56-3.36.85H473c-13.72-2.81-27.21-6.21-39.9-12.45-7.06-3.47-13.88-7.09-19.7-12.48a8.34,8.34,0,0,1-2.73-6.13c-.88-14.13-2-28.24-2.73-42.37q-3-60.67-2-121.42c.61-37.64,2.94-75.2,5.56-112.75,1.46-20.92,2.86-41.86,3.55-62.84.83-25.5,1.08-51,.55-76.47-.79-37.47-2.3-74.94-6.17-112.21-3.83-36.92-8.85-73.72-13.3-110.58-3.73-30.91-7.12-61.87-11.18-92.73-4.2-31.88-10.86-63.34-17.26-94.84-6.76-33.29-13.3-66.63-20-99.94-.65-3.27-1.38-6.56-3.31-9.36-.91-1.32-1.39-3.57-3.24-3.43-2.15.16-2.29,2.59-2.91,4.23a47.21,47.21,0,0,0-2.06,6.68c-12,55.2-27.64,109.49-41.2,164.3-12,48.53-26.77,96.27-41.13,144.13-11.83,39.42-26.28,78-38.46,117.29-11.16,36-19.5,72.71-28,109.38-11.74,50.63-24.09,101.11-37.64,151.29-9.94,36.83-20.5,73.49-30.94,110.17-1.64,5.77-4.55,8.12-10.14,9-26.37,4-52.76,4.88-78.95-.63-14.16-3-27.08-9.23-37.62-19.64a11.33,11.33,0,0,1-3.49-7.91c-2.36-36.2.51-72.24,3-108.3,2.37-35.06,6.16-70,10.21-104.88,4-34.73,8.39-69.42,13.4-104,3.75-25.87,7.07-51.83,11.67-77.55,3.28-18.33,8.8-36.26,12.59-54.51,10.93-52.67,21.19-105.49,32.34-158.12a616.47,616.47,0,0,0,11-79.57c1.49-18.91,3.31-37.81,4.69-56.73.36-4.95-.52-10-.53-15-.07-26.67-.68-53.35.11-80,1.07-35.94,3.41-71.83,7.31-107.61,4.5-41.26,10.64-82.22,18.71-122.93,1.57-7.93.93-16.27,1.61-24.4,2.19-26.21,4.71-52.4,6.73-78.62,2-26,1.52-51.75-2.82-77.65-13.49-80.56-40.07-156.66-76-229.71-.66-1.34-1.39-2.66-2.14-4-.14-.24-.55-.32-1.28-.71-3,5.15-5.88,10.33-8.86,15.46a487.76,487.76,0,0,1-66.09,88.86,10.36,10.36,0,0,0-3,7.57,1161.11,1161.11,0,0,0,8.55,150q3.4,28.28,8.18,56.35a9.67,9.67,0,0,1-2.22,8.31c-25.24,30.94-66,39.82-102.05,22.82a6.76,6.76,0,0,1-4-5.29c-7.24-36.44-13.16-73.08-17.1-110-3-28-5.3-56-6-84.18A16.15,16.15,0,0,0-154,583Q-154,541-154,499ZM521,257.38c0-24.72-.74-41.5-3.38-58.17-6.08-38.38-20.83-72.51-48.54-100.41C448.55,78.12,424,63.7,397.4,52.33a14.83,14.83,0,0,0-7.85-.76A267.19,267.19,0,0,0,353.67,58c-20.48,5.37-41,10.62-62.23,11.78s-43,1.62-63.3-5.68c-11.68-4.2-21-3-31.5,2.13-15.41,7.51-32.23,12.41-46.95,21-41.11,24-69.35,58.76-82.33,105.06-11.51,41-9.6,82.44-2.39,123.86,7.51,43.18,20.36,84.91,36.27,125.61,18.62,47.64,34.26,96,41.72,146.74,3.35,22.79,5.88,45.66,4.71,68.68-1.43,28.14-6,56-9.92,83.83-1.17,8.24-1.24,8.34,6.06,12.75,18.12,10.95,37.71,18.39,58.09,23.79,38.23,10.13,77.19,12.53,116.49,10.14,58.33-3.55,114.49-17.28,169.44-36.59,3.45-1.21,3.71-2.91,2.72-6a294.94,294.94,0,0,1-8.78-34.36c-6.35-32.68-8.3-65.66-7.35-98.93a799,799,0,0,1,6.92-82.11c7-52.87,17.89-105.09,26.77-157.64C515,331.5,521.14,290.83,521,257.38Zm-430,864c0,9-.14,18,0,27,.19,9.32-.1,18.66.76,28a6.7,6.7,0,0,0,3.81,5.87,231.39,231.39,0,0,0,100.06,28.45c40.5,2.27,80-5.34,119.55-11.92,3.83-.64,4.62-3.18,5.32-6.23q6-26.3,12.15-52.59a52,52,0,0,1,3.06-9.49c2.53-5.61,5.88-5.84,9.59-1a37.73,37.73,0,0,1,7.14,15.78c2.8,14,5.82,28.05,8.46,42.13.77,4.11,2.8,5.71,6.76,6.6a457.5,457.5,0,0,0,148.5,8.67,426.23,426.23,0,0,0,108-26c4.85-1.85,6.89-4.19,6.75-9.75a902.82,902.82,0,0,0-8.67-104.5c-7.42-52.3-18.35-104-28.34-155.81-2-10.56-5.76-19.14-14.91-25.12-2.47-1.62-4.42-4-6.59-6.1C538.28,843,512.36,805.1,495.87,760.9c-2.85-7.64-2.87-7.69-10.63-5a709.48,709.48,0,0,1-71.39,21c-56.67,13.39-113.88,19.72-172,12.2C205.69,784.46,171,775,139.64,755.52c-3.88-2.42-4-.09-4.41,2.68-4.23,29.19-10.48,58-16.62,86.82C99.22,936.1,90.87,1028.36,91,1121.4Zm319,820.26c-.54,40.38,1.9,84,4.29,127.54a7.51,7.51,0,0,0,3.45,6.17c36.06,26.62,88.29,28.91,126.55,5.63,3.87-2.35,6-5.09,6.59-9.75,2.55-20.83,5.54-41.6,8.18-62.42q11.82-93.2,23.51-186.41c7.66-60.15,14.84-120.36,26.83-179.88a689.58,689.58,0,0,0,10.88-71.12c2.25-23.85,3.25-47.84,4.19-71.79,1.33-34,2.45-67.93,3-101.9.64-39.94,0-79.89-.47-119.83-.15-14,.46-28,.71-42q.47-26.23,2.72-52.36c.44-5,.09-5.35-4.62-3.58-.94.35-1.85.75-2.79,1.11-47,17.92-95.76,26.93-146,28a465.33,465.33,0,0,1-108.63-10.94c-5.21-1.13-5.47-.84-4.54,4.52,5.26,30.37,11.55,60.55,18,90.68,7.49,34.77,9.82,70.23,14.35,105.39,4.49,34.85,7.84,69.85,12.52,104.67a1256.18,1256.18,0,0,1,10.28,131.41c.82,28.64,1.35,57.28.39,85.95-.62,18.65-1.18,37.31-2.57,55.9C412.88,1830.48,409.63,1884.34,410,1941.66ZM-7.69,1890.25c0,8.16.24,16.34-.07,24.49-.27,6.89,2.59,11.75,8.08,15.54a78.42,78.42,0,0,0,25.37,11.47c27.44,7,55.11,6,82.87,2.37,3.74-.49,5.34-2.21,6.33-5.76,5.23-18.77,10.77-37.46,16.12-56.2,17.64-61.85,34-124,48.18-186.77,14.46-64.06,30.85-127.52,52.47-189.59,7.89-22.64,15-45.56,22.07-68.48,12.83-41.7,25.34-83.48,36-125.82,8.91-35.37,17.52-70.83,27.66-105.88.92-3.19-.14-3.29-2.79-2.8-6.22,1.15-12.5,2-18.74,3.05-33,5.64-66.06,10.52-99.81,8.57-35.66-2.07-69.41-10.39-100.64-28-3.25-1.83-4.74-1.64-5,2.45-1,14-1.89,27.91-3.2,41.83-2,21.53-3.34,43.13-7.78,64.42Q61.72,1380,44.73,1465c-4.09,20.6-10.5,40.7-14,61.35-5.85,34.81-10.62,69.82-15.36,104.81C8.91,1679,3.18,1727-1.22,1775.07-4.73,1813.4-7.54,1851.75-7.69,1890.25ZM583,356.41c.21,27.4,1.59,52,7.23,76.15.56,2.42,1,4.88,2.92,6.77,3.6,3.54,6.2,7.83,8.77,12.12,20.16,33.66,35.43,69.78,52.54,105,6.1,12.55,10.74,25.9,21,36,3.43,3.39,6.46,7.19,9.78,10.69,19.3,20.34,40.59,38.08,66.25,49.94,12.53,5.8,25.58,9.51,39.62,8.73,23.16-1.29,42.53-26.27,37.77-48.86-1.48-7-3.1-14-4.79-21-9.6-39.62-24.14-77.51-39-115.41C753.66,396.07,723.6,315,702.7,230.88a153.12,153.12,0,0,0-40.64-72.39c-2.62-2.62-4.67-2.87-7.76-1a92.19,92.19,0,0,0-21.41,17.84c-13.58,15.59-22.51,33.76-29.39,53C588.41,270.65,583.66,314.56,583,356.41Zm4.07,526.76c1.37-2.59.4-4.49,0-6.35-7.87-33.41-15.87-66.79-23.63-100.22-2.82-12.14-6.45-24.1-7.05-36.74-.55-11.64-1.24-23.28-1.83-34.92a738.75,738.75,0,0,1,.53-78.42,754.47,754.47,0,0,1,12.67-102.59c5.59-28.59,9.87-57.49,19.09-85.27.58-1.74.1-3.3-.28-4.89-5.38-22.15-6.95-44.75-7.54-67.41-.48-18.33.78-36.62,2.69-54.86,3.41-32.45,9.45-64.31,22.06-94.59C614.26,191.74,628,169,652.2,154.41c2.85-1.71,2.2-3.09.07-4.87a125.33,125.33,0,0,0-23.54-15c-24.06-12.36-49.37-21.77-74.54-31.52-38.84-15-78.25-28.75-115.84-46.73-10.4-5-20.55-2.92-30.84-4.51a18,18,0,0,0,5,3.27,252.27,252.27,0,0,1,27.88,15.64c36.38,23.81,61.56,56.07,74.16,97.88,11.14,37,12.11,74.78,9.31,112.91-2.87,39.11-9.35,77.71-16.25,116.25-10.94,61.16-23.17,122.12-27.86,184.23-3.1,41-2.52,81.91,4.76,122.52q18.44,102.78,95.76,173C582.41,879.39,584.72,881.18,587.11,883.17ZM-2.59,184.8c-2.54,1.25-3.41,3.13-4.57,4.7C-39.46,233.44-64,281.56-84.38,332q-31.92,79-63.86,158a20.43,20.43,0,0,0-1.49,7.79c0,24.83-.21,49.66,0,74.48.09,9.15,1,18.34,4.17,27.06,4,11,12.39,15.89,24,13.92a51.82,51.82,0,0,0,10.64-2.68c27.34-11,49.79-28,65.3-53.54,1.79-2.94,3-5.95,2.87-9.39-.18-4.12,1.6-7.16,4.39-10.15A488.88,488.88,0,0,0,34.39,436.32c2.29-4.25,2.37-7.75.44-12.16C2.62,350.52-8.16,273.4-2.31,193.62-2.11,190.86-1.75,188.05-2.59,184.8Zm672.66,408.5c.9,2.65,1.67,5,2.48,7.25q32.66,92.59,65.34,185.18,19.71,55.83,39.43,111.67a8.68,8.68,0,0,0,4.7,5.42c37.68,18.1,84.15,7,109.32-26.2a8.84,8.84,0,0,0,1.62-8.31q-27.81-109.7-55.44-219.45c-1.49-5.89-3.05-11.77-4.94-19-2.11,4.42-3.53,7.54-5.07,10.59-9.4,18.66-25,27.11-45.74,25.06-12.8-1.27-24.72-5.34-36.11-11-28-14-50.78-34.61-71.4-57.82C673.23,595.44,672.64,593.7,670.07,593.31ZM126,98.34l-.64-.92c-.75.26-1.52.48-2.26.79a644.67,644.67,0,0,0-71.2,35.14c-11.15,6.35-22.71,12.18-32,21.16C12.21,161.86,4,169.29,2.75,180.7,1.57,191.12.81,201.61.45,212.09A563.47,563.47,0,0,0,3,288.45c4.52,44.48,16.26,87,33,128.29,8,19.79,18.53,38.4,27.09,57.95,24.46,55.88,44.72,113.1,55.65,173.3,4,21.77,8.54,43.51,8.35,65.82-.22,26.35-3.15,52.52-5.43,78.72-.76,8.73-1.56,17.46-2.35,26.18a111.6,111.6,0,0,0,4.42-17c6.95-36.68,12.1-73.63,16.95-110.64,3.28-25.06,4.42-50.1,1.82-75.26A583.39,583.39,0,0,0,103.8,459.65c-15.89-40-29.46-80.76-38.68-122.88-8.5-38.83-12.76-77.95-7.3-117.58,6.13-44.52,25-82.58,58.88-112.69C119.77,103.77,122.87,101.06,126,98.34ZM-148.69,603.26c0,1.54,0,2.2,0,2.86q2.17,39.93,7.07,79.61c3.71,30.44,8.68,60.68,14.64,90.75a8.39,8.39,0,0,0,5.55,6.88c32,13.42,66.43,6.2,90.47-18.85,4.06-4.23,5.34-8.29,4.35-14.24C-36.25,692.85-41.88,635-42.44,576.79c0-4.75-.48-9.49-.74-14.4-2.42.57-2.81,2.4-3.72,3.66A134.14,134.14,0,0,1-112.32,615C-128.89,620.8-138.62,617.37-148.69,603.26ZM398,46.67c8.62.48,15.92,1.05,23.24,1.25,12.66.35,9.93,1.59,11-10,1-10.38-1.45-20-11.82-24.89-16.92-8-34.88-12.93-53.64-11.42-34,2.74-67.91,6.82-102.1,6.72-4.15,0-6.88,1.51-8.39,5.58C250.52,29.63,240,41.55,226.55,51.23c-2.46,1.78-7.34,3-6.71,5.63s5.49,3.08,8.67,3.82c36.43,8.45,72.68,7.16,108.68-2.47C357.6,52.75,378.15,48.23,398,46.67Z" transform="translate(154 2.56)"/></g></svg>