<svg id="Layer_1" data-name="Layer 1" xmlns="http://www.w3.org/2000/svg" viewBox="0 0 46 283.26"><title>back-back-stripe</title><g id="Tm6DRK.tif"><path d="M-104.5-95.5h1a187.44,187.44,0,0,0-1.44,20.89c-.24,13.32.36,26.61,1.31,39.9.84,11.7,2.17,23.35,3.35,35,1,9.51,2.63,18.94,3.68,28.44,1.66,15,4.4,29.78,5.4,44.81.21,3.14-.1,6.34.7,9.44V96.5A21.06,21.06,0,0,0-90.9,99a219.17,219.17,0,0,1-4.47,37.11c-3,13.48-7.17,26.51-13.76,38.69a81.76,81.76,0,0,1-7.6,11.73c-1.25,1.58-2.34,1.72-3.88.25-4.74-4.51-5.5-7.37-3.28-13.58.34-.94.66-1.89,1.06-2.8,8.14-18.56,11.74-38.07,12.31-58.24a170.85,170.85,0,0,0-1.16-20.68A115.9,115.9,0,0,0-115,70.76c-2.77-9.85-6.11-19.54-9-29.35-3.64-12.2-7.06-24.46-9.68-36.94-1.11-5.3-1.58-10.69-2.75-16V-13c.35-.84.74-1.67,1-2.53,3.29-9.44,4.48-19.24,4.91-29.15.42-9.63.94-19.27,1.12-28.91.14-7.69,2.92-13.74,11-16.55C-113.77-91.78-109.16-93.72-104.5-95.5Z" transform="translate(136.5 95.5)"/></g></svg>