<svg id="Layer_1" data-name="Layer 1" xmlns="http://www.w3.org/2000/svg" viewBox="0 0 130.03 262.82"><title>back-right-wing</title><g id="JD0LSv.tif"><path d="M-111.41,154.51c-7.31,0-14.64-.19-21.94.09-2.95.11-3.63-.52-3.47-3.47.31-5.61.09-11.25.09-16.88,6.3-7.32,13.94-13,22.08-18.1,10-6.27,19.79-13,28.14-21.38,11-11.11,15.92-23.7,11.34-39.81Q-86.48,15.24-95.93-25c-5.76-24.34-10.4-48.94-15.61-73.4-1.13-5.3-.77-8.46,6-6.16,7.54,2.56,15.43,2.74,23.34,2.73,16.4,0,32.46-2.8,48.45-6,7-1.4,10.15,1.08,9.95,8.17-.11,3.65.16,7.31,0,11A495.35,495.35,0,0,0-14,27,331.14,331.14,0,0,1-6.85,89.69c.31,28.53-.78,29.79-27.48,40.71A470.69,470.69,0,0,1-111.41,154.51Z" transform="translate(136.84 108.2)"/></g></svg>