<svg id="Layer_1" data-name="Layer 1" xmlns="http://www.w3.org/2000/svg" viewBox="0 0 4188.47 8713"><title>flul</title><g id="iZWKbs.tif"><path d="M-405,3110.45H-768.16c-13.37-3.66-26.69-7.51-40.12-11-194.53-49.85-353.89-139.84-412.37-350.85-34.29-123.72-122.11-230-119.53-366.32.31-16.51-15.23-27.75-29.16-37.17-55.8-37.75-90.91-91.17-119-151.45q-238.18-511.92-474.27-1024.81c-192.28-415.53-374.93-835.61-583.76-1243.24-89.94-175.56-179.26-352.37-301.25-509.46-14.49-18.66-28.37-45.6-52.39-40.3-64.7,14.27-74.84-30.82-87.57-73.16-65.56-218-135.48-434.63-192.19-655.41C-3315-1879.45-3381.2-2415.27-3396.16-2957.8c-8.82-320.12-24.43-640.58,15.82-960.11,79.74-633.11,346.68-1175.21,788.11-1634.16,54-56.19,103.81-64.42,172.78-29.92,290.1,145.11,547.95,330,758,580.4,227.86,271.57,382.44,580.71,490.45,915.81,62.88,195.08,91.34,398.69,146.22,595.13C-941.6-3193.1-843-2899.86-750.4-2604.95c183.79,585.64,389.71,1163.62,597.74,1741C-22.81-503.58,128.25-151.25,250,212.11Q442.77,787.34,637.89,1361.77c17.6,51.92,23.88,102.38,12.11,157.25-7.06,32.89-28.5,74.73-7.44,101.33C712.31,1708.46,713.19,1820.13,755,1917c39.32,91.1,29.45,182.52,8.24,273.29C691.11,2498.93,482,2701.35,228.17,2866.16,34.67,2991.79-179.06,3067.63-405,3110.45Z" transform="translate(3406.65 5602.56)"/></g></svg>