<svg id="Layer_1" data-name="Layer 1" xmlns="http://www.w3.org/2000/svg" viewBox="0 0 277.07 114"><title>sholders</title><g id="ADYoaE.tif"><path d="M-3,315c4.56,3.32,9,6.85,13.74,9.89,3.1,2,3.35,3.73.75,6.11-4,3.7-7.92,7.59-12.15,11.05-13.47,11-27.33,21.59-39.57,34-10.71,10.9-20.13,22.9-29,35.29-4.36,6.07-9.09,11.8-13.75,17.62h-3c-3.2-15.11-4-30.63-8.16-45.6-2.87-10.25-5.63-20.53-9.12-30.59-1-2.88-1.16-5.08,2.64-6,18.92-4.62,37.11-11.58,55.62-17.49,10.66-3.4,21.19-8,32.81-7.74,4.45.12,7.57-1.77,8.21-6.58Z" transform="translate(103.89 -315)"/><path d="M173.13,349.35c-1.93,6.4-3.6,12-5.3,17.53-5.29,17.24-8.41,34.91-10.67,52.76a25.34,25.34,0,0,1-.53,2.95c-.43,1.71,0,4.1-2.13,4.71-2.33.67-3.44-1.48-4.66-3-10.1-12.74-18.85-26.48-29.31-39C109.58,372.23,96.84,361.11,84,350c-7.41-6.4-15.43-12.13-22.07-19.44-2.47-2.73-3.46-4.74.51-6.9a64.55,64.55,0,0,0,5.66-4.09c2.66-1.85,4.87-5,8.46-.45,1.27,1.62,5.32,1.46,8.1,1.43,11.29-.13,21.43,4.52,31.76,7.88,17.7,5.75,35,12.84,53.08,17.33C171.92,346.39,173.49,347.42,173.13,349.35Z" transform="translate(103.89 -315)"/></g></svg>