<?xml version="1.0" encoding="utf-8"?>
<!-- Generator: Adobe Illustrator 21.1.0, SVG Export Plug-In . SVG Version: 6.00 Build 0)  -->
<svg version="1.1" id="Layer_1" xmlns="http://www.w3.org/2000/svg" xmlns:xlink="http://www.w3.org/1999/xlink" x="0px" y="0px"
	 viewBox="0 0 277.1 114" style="enable-background:new 0 0 277.1 114;" xml:space="preserve">
<g id="UOk1Yb.tif">
	<g>
		<g>
			<path d="M-46,77c0,0.5,0,1,0,1.5c-2.6,0.6-5.1,0.1-7.6-0.4c-4.3-0.8-8.7-1.5-13.1-0.6c-3.9,0.8-5.7,2.8-6.1,6.8
				c-0.3,2.8-2.3,5.2-4.9,6c-1.6,0.4-3.2,0.8-4.9,0.8c-6.6,0.1-12.8-1.8-18.8-4.5c-6.6-2.9-9.2-1.9-12.4,4.5
				c-0.2,0.4-0.4,0.7-0.6,1.1c-0.7,1.8-1.9,3-3.5,4.1c-5.4,3.4-11,6.3-17.1,8c-11.9,3.4-19.2,11.1-22.8,22.7c-0.5,1.5-1.1,3-2.5,3.9
				c-1.5,0-3,0-4.5,0c-1.9-0.5-2.6-1.8-3-3.6c-0.4-2-0.8-3.9-1.3-5.9c-1.4-5.8-2.5-11.8-7.2-16.2c-0.5-0.5-0.6-1.2-0.7-1.8
				c-2.2-12.2-3.5-24.6-3.2-37c0.3-10.4,1.1-20.7,2.6-31.1c2.5-17.1,6.5-33.8,11.9-50.2c2.6-7.9,5.8-15.6,8.9-23.3c0.5,0,1,0,1.5,0
				c0.4,0.1,0.8,0.3,1.2,0.4c9.7,1.9,18.6,5.7,27.1,10.6C-111.9-18.2-98.7-7-87,6.2c13.4,15,24.2,31.5,32.6,49.7
				C-51.2,62.8-48.8,70-46,77z"/>
		</g>
	</g>
</g>
</svg>
